#!OML:ASF F:\VICON\USERDATA\INSTALL\rory3\rory3.ASF
:FULLY-SPECIFIED
:DEGREES
88
root 0.41653760468013934 17.950869757836127 31.747507949604504 -2.686051259406337 -1.2707117413557607 -5.5141264579518605
lfemur -16.95904998221573 1.1372921655261017 -15.047758397563202
ltibia 66.82978972387522
lfoot -4.072519154022182 -5.708006520552984
ltoes -7.699759979276931
rfemur -11.088565836027245 3.5366708253176964 30.86026631347439
rtibia 30.02186355361149
rfoot -8.249820825514648 -8.823432805462904
rtoes 6.220467890908349
lowerback 11.32876250493338 0.031642480005430546 2.434668393581702
upperback 0.05543438202283907 1.1532950854253807 2.3983160704112407
thorax -6.125315842171052 0.06420174894486674 1.8515536672487345
lowerneck -15.919938672430277 -3.368694363795439 -2.8532845995704297
upperneck 21.12871979087753 -4.550378809599202 2.222701193175729
head 9.520834021855075 -2.0157784576837567 0.6075207636778581
lclavicle 2.94856396934004e-16 4.2887253843721563e-17
lhumerus -33.764643132017994 3.2651958530062157 80.0809626872383
lradius 28.23228156482478
lwrist 7.270365955501837
lhand -29.20439719801295 20.636293256383855
lfingers 7.125020000000001
lthumb -2.5776942927033852 50.61989131370655
rclavicle 2.9722548434345244e-16 5.396460865189488e-17
rhumerus -30.753737770127195 -18.701105860987905 -76.47128045010022
rradius 26.393864679393076
rwrist 5.3506449610147655
rhand -17.981815695193205 22.855485172203306
rfingers 7.125020000000001
rthumb 8.408327991715968 -6.8223977440513845
89
root 0.4212490474653922 17.915628101062296 32.165473518360386 -2.3987351704499567 -1.6171687493347258 -5.88419124706641
lfemur -19.835581073217227 1.4809699835355934 -14.712453780196899
ltibia 64.24412937677113
lfoot -3.9585103985408367 -5.100427888304269
ltoes -7.681051036590644
rfemur -9.294024951328243 3.8286237285494265 31.541094713100676
rtibia 29.823884641414363
rfoot -8.93631176526114 -8.9109809708886
rtoes 5.4420902645105285
lowerback 11.329346434181968 0.30083629230920517 2.8916363272869097
upperback 0.023524670037329706 1.5881247940484708 2.3495578356621185
thorax -6.146691185364605 0.2869169408451882 1.3275107443014473
lowerneck -15.946905240106476 -3.3786250339737274 -2.8616285171196156
upperneck 21.178318164044537 -4.538130100399436 2.2268568737383143
head 9.51547601129297 -2.029866487730476 0.6049334956690819
lclavicle 2.948563871276984e-16 4.2887245877367046e-17
lhumerus -33.9255533423231 3.2593576761171317 80.00406531151043
lradius 27.833485889038904
lwrist 7.169407132694273
lhand -29.195702911033795 20.64327299631354
lfingers 7.125020000000001
lthumb -2.566824163709573 50.64904337155671
rclavicle 2.9722548343109615e-16 5.3964608030060056e-17
rhumerus -29.944515765669916 -17.949317367452583 -77.05360135164557
rradius 27.43402420469026
rwrist 3.95262046716968
rhand -17.96901698201812 22.868460978616135
rfingers 7.125020000000001
rthumb 8.37807187233368 -6.847207651999709
90
root 0.42834748526212857 17.877001887282336 32.38649369668944 -2.059231422445052 -1.9607871573252238 -6.283232625994643
lfemur -21.898100289222057 1.4548828844282342 -14.34120353316203
ltibia 59.37301113659712
lfoot -4.882958450446377 -5.431667732801659
ltoes -7.7464114206322785
rfemur -7.6172505544827755 4.102404485769294 31.95499442641022
rtibia 29.31073307089379
rfoot -9.499668759748946 -9.019534828128771
rtoes 4.400384328785167
lowerback 11.324607464858783 0.5556612746868557 3.3209402523586284
upperback -0.015317809345978636 1.9874793292596633 2.3060734713501585
thorax -6.155071309552043 0.5062048223208456 0.7891227547029614
lowerneck -15.965063301242099 -3.3780346106616372 -2.859746027334991
upperneck 21.204639034679673 -4.505661980488273 2.2289172138688733
head 9.509154643410533 -2.041195825780859 0.5938521497757846
lclavicle 2.9485639831039713e-16 4.2887254606917156e-17
lhumerus -33.80310742913133 3.45132788472199 80.06218894659536
lradius 27.427405735049646
lwrist 7.071513708969352
lhand -29.18832589612062 20.62893319578815
lfingers 7.125020000000001
lthumb -2.5592568589324256 50.651833617322694
rclavicle 2.9722548409892385e-16 5.39646084484378e-17
rhumerus -29.33028771725344 -17.468922903498594 -77.50906654399891
rradius 28.433497211674386
rwrist 2.7297189118757044
rhand -17.948186564603482 22.88044930624612
rfingers 7.125020000000001
rthumb 8.359435357293087 -6.8742887246823114
91
root 0.4406968371510117 17.839144097431262 32.7427727736391 -1.6903242329750336 -2.2789882612842014 -6.5808706892090205
lfemur -23.196408694140686 0.9580890154803128 -13.968449356429259
ltibia 51.928449013070235
lfoot -3.498116353862501 -4.715738797370319
ltoes -7.887152122781674
rfemur -5.621537685616991 4.321955429713066 32.41515237972883
rtibia 28.305948167434174
rfoot -9.619169737749989 -8.964139993971001
rtoes 3.518989954307693
lowerback 11.292230690752287 0.7753147927766914 3.6746785798016566
upperback -0.06180520097030323 2.3124926619433195 2.2573304958588576
thorax -6.148588383122193 0.7129679446678914 0.26731254239150926
lowerneck -15.99634860100866 -3.379369961917372 -2.8617941707660504
upperneck 21.191598962436032 -4.491373422988301 2.203843800664894
head 9.50330883456919 -2.0470841552328523 0.581446173969452
lclavicle 2.948563881656122e-16 4.28872478197445e-17
lhumerus -33.69481785828725 3.572683563887819 80.14634412810646
lradius 27.018464249825
lwrist 6.983019015085425
lhand -29.182386140337453 20.59480572480972
lfingers 7.125020000000001
lthumb -2.5531492568969627 50.63818371154472
rclavicle 2.972254842550314e-16 5.3964608569177977e-17
rhumerus -28.848332212359907 -17.11868742975725 -77.75764022692518
rradius 29.37804500725465
rwrist 1.6979206235639772
rhand -17.92174727563567 22.890953290506555
rfingers 7.125020000000001
rthumb 8.34436241464937 -6.909374569571783
92
root 0.4572888167227545 17.798077486697373 33.06279949189096 -1.367268744854286 -2.581754644840306 -6.790574195861238
lfemur -23.627470956886032 -0.1338549939701088 -13.46498922781841
ltibia 42.188216567888915
lfoot -3.4097414461535758 -5.124144518897275
ltoes -7.933627761250191
rfemur -3.9361725052197833 4.386238082966609 32.64869261197341
rtibia 26.79168423645396
rfoot -9.246478731500876 -8.796048735067028
rtoes 2.444307176089684
lowerback 11.21131364920661 0.9436060076229897 3.90086197769795
upperback -0.11005429688560901 2.5552578354602726 2.2027856879588796
thorax -6.12446632610453 0.9031068562670852 -0.18990698009282436
lowerneck -16.01817338781205 -3.3792872960980787 -2.8645368653971124
upperneck 21.166715064019968 -4.509126123230827 2.160979053360783
head 9.504332893614956 -2.045366411203471 0.5769589661272763
lclavicle 2.94856394304449e-16 4.288725137509679e-17
lhumerus -33.75804037125798 3.373719357344879 80.18335580234874
lradius 26.605182355480995
lwrist 6.967491006951616
lhand -29.1753015634289 20.549588829429943
lfingers 7.125020000000001
lthumb -2.5498550710068644 50.60743576755566
rclavicle 2.9722548069846713e-16 5.396460602337523e-17
rhumerus -28.47207488977754 -16.85774592541998 -77.9420749426007
rradius 30.261992047815568
rwrist 0.8340840588156424
rhand -17.893131615346512 22.9005052369649
rfingers 7.125020000000001
rthumb 8.333839903579538 -6.946640058516791
93
root 0.4819040113936318 17.756697381810003 33.59891331619507 -1.1679264106885172 -2.8132061547418155 -6.823086195589364
lfemur -23.20720842919677 -1.8807834619831965 -12.679517401551111
ltibia 31.158078071120052
lfoot -3.6669680212385143 -5.096911117294238
ltoes -7.661985909215366
rfemur -2.2097854382017346 4.5028287123337485 32.78777520637054
rtibia 25.133278886236276
rfoot -8.924924944638535 -8.6758670159799
rtoes 1.037956284375448
lowerback 11.088684261504184 1.0705855102865327 4.005262739723764
upperback -0.14876591899393438 2.744776832217906 2.1467347548015887
thorax -6.08154574202902 1.0749272859793795 -0.535578040431582
lowerneck -16.054616184154014 -3.3825922644099027 -2.8776898863901206
upperneck 21.164733176660544 -4.534073797003478 2.137515409620952
head 9.492194515023353 -2.0491444001319903 0.5659283573051892
lclavicle 2.9485638552500787e-16 4.288724420725348e-17
lhumerus -33.774356198790365 3.1264947343083778 80.22958406781838
lradius 26.183332636790634
lwrist 6.999858531932019
lhand -29.164898192913373 20.501751108930357
lfingers 7.125020000000001
lthumb -2.5477552277830564 50.56621462774301
rclavicle 2.972254820064229e-16 5.3964606925142436e-17
rhumerus -28.124420576665827 -16.713806289885333 -78.10333203774104
rradius 31.0727682704268
rwrist 0.12651763330503396
rhand -17.864823291426813 22.910225434708238
rfingers 7.125020000000001
rthumb 8.328878116860876 -6.977396348435702
94
root 0.5129855526849938 17.71832699008143 34.15270688899092 -1.1745293658441782 -2.9353502479922233 -6.693011397010094
lfemur -21.997077449998265 -3.9632583103129484 -11.750773784710677
ltibia 20.85425127606586
lfoot -2.3656382945302834 -4.9774507496338565
ltoes -7.371352032498825
rfemur -1.1828651262282577 4.39805217662053 32.431107364566216
rtibia 24.232516029309068
rfoot -8.110473969870117 -8.551449533576587
rtoes -0.4889912012094877
lowerback 10.965058044222609 1.170935109747066 4.0092758310407035
upperback -0.17355021177087226 2.877264821008871 2.0798831132335667
thorax -6.025069154103973 1.2205038574651295 -0.7600278340450253
lowerneck -16.114382381515874 -3.3925331071346 -2.9013405980002784
upperneck 21.170582753540454 -4.568573843413922 2.128310301957316
head 9.47977693355242 -2.0560883615421197 0.5604386373173014
lclavicle 2.948563896419944e-16 4.2887247740101004e-17
lhumerus -33.83723430879774 2.855433716075382 80.24058361253921
lradius 25.75012506648326
lwrist 7.084245967925489
lhand -29.152351820091607 20.4510914980994
lfingers 7.125020000000001
lthumb -2.5457578726124304 50.51720059815051
rclavicle 2.9722547996545615e-16 5.3964605532694815e-17
rhumerus -27.84956053064251 -16.688009768888715 -78.1943470020524
rradius 31.797372302389153
rwrist -0.3817787394819896
rhand -17.83579556549647 22.922553250611788
rfingers 7.125020000000001
rthumb 8.32604688553038 -7.003079819038864
